<?xml version="1.0" encoding="UTF-8"?>
<svg width="500" height="300" viewBox="0 0 500 300" fill="none" xmlns="http://www.w3.org/2000/svg">
  <rect width="500" height="300" fill="#F8F9FA"/>
  <rect x="100" y="80" width="300" height="140" rx="10" fill="#FFF4E6" stroke="#FF9500" stroke-width="2"/>
  
  <!-- Wallet Option 1 -->
  <rect x="120" y="100" width="80" height="100" rx="8" fill="white" stroke="#FF9500" stroke-width="2"/>
  <circle cx="160" cy="130" r="15" fill="#FF9500"/>
  <rect x="130" y="160" width="60" height="8" rx="4" fill="#E9ECEF"/>
  <rect x="140" y="175" width="40" height="6" rx="3" fill="#E9ECEF"/>
  
  <!-- Wallet Option 2 -->
  <rect x="210" y="100" width="80" height="100" rx="8" fill="white" stroke="#FF9500" stroke-width="2"/>
  <circle cx="250" cy="130" r="15" fill="#FF9500"/>
  <rect x="220" y="160" width="60" height="8" rx="4" fill="#E9ECEF"/>
  <rect x="230" y="175" width="40" height="6" rx="3" fill="#E9ECEF"/>
  
  <!-- Wallet Option 3 -->
  <rect x="300" y="100" width="80" height="100" rx="8" fill="white" stroke="#FF9500" stroke-width="2"/>
  <circle cx="340" cy="130" r="15" fill="#FF9500"/>
  <rect x="310" y="160" width="60" height="8" rx="4" fill="#E9ECEF"/>
  <rect x="320" y="175" width="40" height="6" rx="3" fill="#E9ECEF"/>
</svg>