<?xml version="1.0" encoding="UTF-8"?>
<svg width="500" height="300" viewBox="0 0 500 300" fill="none" xmlns="http://www.w3.org/2000/svg">
  <rect width="500" height="300" fill="#F8F9FA"/>
  
  <!-- Browser Window -->
  <rect x="100" y="60" width="300" height="180" rx="8" fill="white" stroke="#DEE2E6" stroke-width="2"/>
  <rect x="100" y="60" width="300" height="30" rx="8" fill="#F1F3F5" stroke="#DEE2E6" stroke-width="2"/>
  <circle cx="120" cy="75" r="6" fill="#FF6B6B"/>
  <circle cx="140" cy="75" r="6" fill="#FFD43B"/>
  <circle cx="160" cy="75" r="6" fill="#69DB7C"/>
  
  <!-- Wallet Connect Popup -->
  <rect x="150" y="110" width="200" height="120" rx="8" fill="white" stroke="#FF9500" stroke-width="2" filter="drop-shadow(0px 4px 6px rgba(0, 0, 0, 0.1))"/>
  <rect x="150" y="110" width="200" height="30" rx="8" fill="#FFF4E6" stroke="#FF9500" stroke-width="2"/>
  <circle cx="170" cy="125" r="8" fill="#FF9500"/>
  <rect x="185" y="120" width="80" height="10" rx="5" fill="#FF9500"/>
  
  <!-- Connection Details -->
  <rect x="170" y="150" width="160" height="10" rx="5" fill="#E9ECEF"/>
  <rect x="170" y="170" width="120" height="10" rx="5" fill="#E9ECEF"/>
  <rect x="170" y="190" width="80" height="20" rx="5" fill="#FF9500"/>
  
  <!-- Lock Icon -->
  <circle cx="350" cy="75" r="8" fill="#FF9500" opacity="0.8"/>
  <rect x="347" y="72" width="6" height="8" rx="2" fill="white"/>
  <rect x="345" y="77" width="10" height="6" rx="2" fill="white"/>
</svg>