<?xml version="1.0" encoding="UTF-8"?>
<svg width="500" height="300" viewBox="0 0 500 300" fill="none" xmlns="http://www.w3.org/2000/svg">
  <rect width="500" height="300" fill="#F8F9FA"/>
  <path d="M250 60C202.5 60 164 98.5 164 146C164 193.5 202.5 232 250 232C297.5 232 336 193.5 336 146C336 98.5 297.5 60 250 60Z" fill="#FFF4E6"/>
  <path d="M250 80C213.5 80 184 109.5 184 146C184 182.5 213.5 212 250 212C286.5 212 316 182.5 316 146C316 109.5 286.5 80 250 80Z" stroke="#FF9500" stroke-width="4"/>
  <path d="M250 100C224.5 100 204 120.5 204 146C204 171.5 224.5 192 250 192C275.5 192 296 171.5 296 146C296 120.5 275.5 100 250 100Z" fill="#FF9500"/>
  <path d="M250 120C235.5 120 224 131.5 224 146C224 160.5 235.5 172 250 172C264.5 172 276 160.5 276 146C276 131.5 264.5 120 250 120Z" fill="white"/>
  <path d="M250 130C241 130 234 137 234 146C234 155 241 162 250 162C259 162 266 155 266 146C266 137 259 130 250 130Z" fill="#FF9500"/>
</svg>