<?xml version="1.0" encoding="UTF-8"?>
<svg width="512px" height="512px" viewBox="0 0 512 512" version="1.1" xmlns="http://www.w3.org/2000/svg" xmlns:xlink="http://www.w3.org/1999/xlink">
    <title>cardano</title>
    <g id="cardano" stroke="none" stroke-width="1" fill="none" fill-rule="evenodd">
        <circle id="Oval" fill="#0033AD" cx="256" cy="256" r="256"></circle>
        <g id="Group" transform="translate(76.000000, 76.000000)" fill="#FFFFFF">
            <path d="M180,0 C186.6,11.6 186.6,25.8 180,37.4 C173.4,49 161.4,56 148.2,56 C134.9,56 122.9,49 116.3,37.4 C109.7,25.8 109.7,11.6 116.3,0 C122.9,-11.6 134.9,-18.6 148.2,-18.6 C161.4,-18.6 173.4,-11.6 180,0 Z" id="Path" transform="translate(148.150000, 18.700000) scale(1, -1) translate(-148.150000, -18.700000) "></path>
            <path d="M243.8,37.4 C250.4,49 250.4,63.2 243.8,74.8 C237.2,86.4 225.2,93.4 212,93.4 C198.7,93.4 186.7,86.4 180.1,74.8 C173.5,63.2 173.5,49 180.1,37.4 C186.7,25.8 198.7,18.8 212,18.8 C225.2,18.8 237.2,25.8 243.8,37.4 Z" id="Path" transform="translate(211.950000, 56.100000) scale(1, -1) translate(-211.950000, -56.100000) "></path>
            <path d="M116.2,37.4 C122.8,49 122.8,63.2 116.2,74.8 C109.6,86.4 97.6,93.4 84.4,93.4 C71.1,93.4 59.1,86.4 52.5,74.8 C45.9,63.2 45.9,49 52.5,37.4 C59.1,25.8 71.1,18.8 84.4,18.8 C97.6,18.8 109.6,25.8 116.2,37.4 Z" id="Path" transform="translate(84.350000, 56.100000) scale(1, -1) translate(-84.350000, -56.100000) "></path>
            <path d="M307.6,74.8 C314.2,86.4 314.2,100.6 307.6,112.2 C301,123.8 289,130.8 275.8,130.8 C262.5,130.8 250.5,123.8 243.9,112.2 C237.3,100.6 237.3,86.4 243.9,74.8 C250.5,63.2 262.5,56.2 275.8,56.2 C289,56.2 301,63.2 307.6,74.8 Z" id="Path" transform="translate(275.750000, 93.500000) scale(1, -1) translate(-275.750000, -93.500000) "></path>
            <path d="M52.4,74.8 C59,86.4 59,100.6 52.4,112.2 C45.8,123.8 33.8,130.8 20.6,130.8 C7.3,130.8 -4.7,123.8 -11.3,112.2 C-17.9,100.6 -17.9,86.4 -11.3,74.8 C-4.7,63.2 7.3,56.2 20.6,56.2 C33.8,56.2 45.8,63.2 52.4,74.8 Z" id="Path" transform="translate(20.550000, 93.500000) scale(1, -1) translate(-20.550000, -93.500000) "></path>
            <path d="M180,74.8 C186.6,86.4 186.6,100.6 180,112.2 C173.4,123.8 161.4,130.8 148.2,130.8 C134.9,130.8 122.9,123.8 116.3,112.2 C109.7,100.6 109.7,86.4 116.3,74.8 C122.9,63.2 134.9,56.2 148.2,56.2 C161.4,56.2 173.4,63.2 180,74.8 Z" id="Path" transform="translate(148.150000, 93.500000) scale(1, -1) translate(-148.150000, -93.500000) "></path>
            <path d="M243.8,112.2 C250.4,123.8 250.4,138 243.8,149.6 C237.2,161.2 225.2,168.2 212,168.2 C198.7,168.2 186.7,161.2 180.1,149.6 C173.5,138 173.5,123.8 180.1,112.2 C186.7,100.6 198.7,93.6 212,93.6 C225.2,93.6 237.2,100.6 243.8,112.2 Z" id="Path" transform="translate(211.950000, 130.900000) scale(1, -1) translate(-211.950000, -130.900000) "></path>
            <path d="M116.2,112.2 C122.8,123.8 122.8,138 116.2,149.6 C109.6,161.2 97.6,168.2 84.4,168.2 C71.1,168.2 59.1,161.2 52.5,149.6 C45.9,138 45.9,123.8 52.5,112.2 C59.1,100.6 71.1,93.6 84.4,93.6 C97.6,93.6 109.6,100.6 116.2,112.2 Z" id="Path" transform="translate(84.350000, 130.900000) scale(1, -1) translate(-84.350000, -130.900000) "></path>
            <path d="M307.6,149.6 C314.2,161.2 314.2,175.4 307.6,187 C301,198.6 289,205.6 275.8,205.6 C262.5,205.6 250.5,198.6 243.9,187 C237.3,175.4 237.3,161.2 243.9,149.6 C250.5,138 262.5,131 275.8,131 C289,131 301,138 307.6,149.6 Z" id="Path" transform="translate(275.750000, 168.300000) scale(1, -1) translate(-275.750000, -168.300000) "></path>
            <path d="M52.4,149.6 C59,161.2 59,175.4 52.4,187 C45.8,198.6 33.8,205.6 20.6,205.6 C7.3,205.6 -4.7,198.6 -11.3,187 C-17.9,175.4 -17.9,161.2 -11.3,149.6 C-4.7,138 7.3,131 20.6,131 C33.8,131 45.8,138 52.4,149.6 Z" id="Path" transform="translate(20.550000, 168.300000) scale(1, -1) translate(-20.550000, -168.300000) "></path>
            <path d="M180,149.6 C186.6,161.2 186.6,175.4 180,187 C173.4,198.6 161.4,205.6 148.2,205.6 C134.9,205.6 122.9,198.6 116.3,187 C109.7,175.4 109.7,161.2 116.3,149.6 C122.9,138 134.9,131 148.2,131 C161.4,131 173.4,138 180,149.6 Z" id="Path" transform="translate(148.150000, 168.300000) scale(1, -1) translate(-148.150000, -168.300000) "></path>
            <path d="M243.8,187 C250.4,198.6 250.4,212.8 243.8,224.4 C237.2,236 225.2,243 212,243 C198.7,243 186.7,236 180.1,224.4 C173.5,212.8 173.5,198.6 180.1,187 C186.7,175.4 198.7,168.4 212,168.4 C225.2,168.4 237.2,175.4 243.8,187 Z" id="Path" transform="translate(211.950000, 205.700000) scale(1, -1) translate(-211.950000, -205.700000) "></path>
            <path d="M116.2,187 C122.8,198.6 122.8,212.8 116.2,224.4 C109.6,236 97.6,243 84.4,243 C71.1,243 59.1,236 52.5,224.4 C45.9,212.8 45.9,198.6 52.5,187 C59.1,175.4 71.1,168.4 84.4,168.4 C97.6,168.4 109.6,175.4 116.2,187 Z" id="Path" transform="translate(84.350000, 205.700000) scale(1, -1) translate(-84.350000, -205.700000) "></path>
            <path d="M307.6,224.4 C314.2,236 314.2,250.2 307.6,261.8 C301,273.4 289,280.4 275.8,280.4 C262.5,280.4 250.5,273.4 243.9,261.8 C237.3,250.2 237.3,236 243.9,224.4 C250.5,212.8 262.5,205.8 275.8,205.8 C289,205.8 301,212.8 307.6,224.4 Z" id="Path" transform="translate(275.750000, 243.100000) scale(1, -1) translate(-275.750000, -243.100000) "></path>
            <path d="M52.4,224.4 C59,236 59,250.2 52.4,261.8 C45.8,273.4 33.8,280.4 20.6,280.4 C7.3,280.4 -4.7,273.4 -11.3,261.8 C-17.9,250.2 -17.9,236 -11.3,224.4 C-4.7,212.8 7.3,205.8 20.6,205.8 C33.8,205.8 45.8,212.8 52.4,224.4 Z" id="Path" transform="translate(20.550000, 243.100000) scale(1, -1) translate(-20.550000, -243.100000) "></path>
            <path d="M180,224.4 C186.6,236 186.6,250.2 180,261.8 C173.4,273.4 161.4,280.4 148.2,280.4 C134.9,280.4 122.9,273.4 116.3,261.8 C109.7,250.2 109.7,236 116.3,224.4 C122.9,212.8 134.9,205.8 148.2,205.8 C161.4,205.8 173.4,212.8 180,224.4 Z" id="Path" transform="translate(148.150000, 243.100000) scale(1, -1) translate(-148.150000, -243.100000) "></path>
            <path d="M243.8,261.8 C250.4,273.4 250.4,287.6 243.8,299.2 C237.2,310.8 225.2,317.8 212,317.8 C198.7,317.8 186.7,310.8 180.1,299.2 C173.5,287.6 173.5,273.4 180.1,261.8 C186.7,250.2 198.7,243.2 212,243.2 C225.2,243.2 237.2,250.2 243.8,261.8 Z" id="Path" transform="translate(211.950000, 280.500000) scale(1, -1) translate(-211.950000, -280.500000) "></path>
            <path d="M116.2,261.8 C122.8,273.4 122.8,287.6 116.2,299.2 C109.6,310.8 97.6,317.8 84.4,317.8 C71.1,317.8 59.1,310.8 52.5,299.2 C45.9,287.6 45.9,273.4 52.5,261.8 C59.1,250.2 71.1,243.2 84.4,243.2 C97.6,243.2 109.6,250.2 116.2,261.8 Z" id="Path" transform="translate(84.350000, 280.500000) scale(1, -1) translate(-84.350000, -280.500000) "></path>
            <path d="M180,299.2 C186.6,310.8 186.6,325 180,336.6 C173.4,348.2 161.4,355.2 148.2,355.2 C134.9,355.2 122.9,348.2 116.3,336.6 C109.7,325 109.7,310.8 116.3,299.2 C122.9,287.6 134.9,280.6 148.2,280.6 C161.4,280.6 173.4,287.6 180,299.2 Z" id="Path" transform="translate(148.150000, 317.900000) scale(1, -1) translate(-148.150000, -317.900000) "></path>
        </g>
    </g>
</svg>