<?xml version="1.0" encoding="UTF-8"?>
<svg width="1024px" height="1024px" viewBox="0 0 1024 1024" version="1.1" xmlns="http://www.w3.org/2000/svg" xmlns:xlink="http://www.w3.org/1999/xlink">
    <title>Coinbase Wallet</title>
    <g id="Page-1" stroke="none" stroke-width="1" fill="none" fill-rule="evenodd">
        <g id="coinbase-wallet">
            <circle id="Oval" fill="#0052FF" cx="512" cy="512" r="512"></circle>
            <path d="M516.9,188.9 C683.6,188.9 819,324.2 819,491 C819,657.7 683.7,793 516.9,793 C350.2,793 214.8,657.7 214.8,491 C214.9,324.3 350.2,188.9 516.9,188.9 Z M516.9,293.1 C407.7,293.1 319.1,381.7 319.1,491 C319.1,600.3 407.7,688.9 516.9,688.9 C626.1,688.9 714.7,600.3 714.7,491 C714.8,381.7 626.2,293.1 516.9,293.1 Z M448.1,442.7 L585.8,442.7 L585.8,539.3 L448.1,539.3 L448.1,442.7 Z" id="Shape" fill="#FFFFFF" fill-rule="nonzero"></path>
        </g>
    </g>
</svg>