<?xml version="1.0" encoding="UTF-8"?>
<svg width="128px" height="128px" viewBox="0 0 128 128" version="1.1" xmlns="http://www.w3.org/2000/svg" xmlns:xlink="http://www.w3.org/1999/xlink">
    <title>Phantom</title>
    <defs>
        <linearGradient x1="99.9927676%" y1="99.9879551%" x2="0%" y2="0%" id="linearGradient-1">
            <stop stop-color="#534BB1" offset="0%"></stop>
            <stop stop-color="#551BF9" offset="100%"></stop>
        </linearGradient>
        <linearGradient x1="99.9927676%" y1="99.9879551%" x2="0%" y2="0%" id="linearGradient-2">
            <stop stop-color="#534BB1" offset="0%"></stop>
            <stop stop-color="#551BF9" offset="100%"></stop>
        </linearGradient>
    </defs>
    <g id="Page-1" stroke="none" stroke-width="1" fill="none" fill-rule="evenodd">
        <g id="phantom-logo">
            <rect id="Rectangle" fill="url(#linearGradient-1)" x="0" y="0" width="128" height="128" rx="64"></rect>
            <path d="M110.584,64.9142 L110.584,85.9572 C110.584,87.9252 109.092,89.6112 107.156,89.9062 C106.244,90.0522 105.332,89.7572 104.628,89.1692 C103.924,88.5812 103.484,87.7012 103.484,86.7232 L103.484,64.9142 L97.8163,64.9142 C89.4723,64.9142 82.6003,58.0422 82.6003,49.6982 L82.6003,43.0422 L59.5923,43.0422 C58.6143,43.0422 57.7343,42.6022 57.1463,41.8982 C56.5583,41.1942 56.2633,40.2822 56.4093,39.3702 C56.7043,37.4342 58.3903,35.9422 60.3583,35.9422 L82.6003,35.9422 L82.6003,28.8422 C82.6003,26.7282 84.3203,25.0082 86.4343,25.0082 L90.7163,25.0082 C92.8303,25.0082 94.5503,26.7282 94.5503,28.8422 L94.5503,35.9422 L101.764,35.9422 C103.878,35.9422 105.598,37.6622 105.598,39.7762 L105.598,44.0582 C105.598,46.1722 103.878,47.8922 101.764,47.8922 L94.5503,47.8922 L94.5503,49.6982 C94.5503,51.8122 92.8303,53.5322 90.7163,53.5322 L86.4343,53.5322 C84.3203,53.5322 82.6003,51.8122 82.6003,49.6982 L82.6003,47.8922 L70.6503,47.8922 C68.5363,47.8922 66.8163,49.6122 66.8163,51.7262 L66.8163,56.0082 C66.8163,58.1222 68.5363,59.8422 70.6503,59.8422 L97.8163,59.8422 C99.9303,59.8422 101.65,61.5622 101.65,63.6762 L101.65,64.9142 L110.584,64.9142 Z M39.1423,64.9142 L39.1423,86.7232 C39.1423,87.7012 38.7023,88.5812 38.0163,89.1692 C37.3303,89.7572 36.4183,90.0522 35.5063,89.9062 C33.5703,89.6112 32.0783,87.9252 32.0783,85.9572 L32.0783,64.9142 L23.1443,64.9142 L23.1443,63.6762 C23.1443,61.5622 24.8643,59.8422 26.9783,59.8422 L54.1443,59.8422 C56.2583,59.8422 57.9783,58.1222 57.9783,56.0082 L57.9783,51.7262 C57.9783,49.6122 56.2583,47.8922 54.1443,47.8922 L42.1943,47.8922 L42.1943,49.6982 C42.1943,51.8122 40.4743,53.5322 38.3603,53.5322 L34.0783,53.5322 C31.9643,53.5322 30.2443,51.8122 30.2443,49.6982 L30.2443,47.8922 L23.0303,47.8922 C20.9163,47.8922 19.1963,46.1722 19.1963,44.0582 L19.1963,39.7762 C19.1963,37.6622 20.9163,35.9422 23.0303,35.9422 L30.2443,35.9422 L30.2443,28.8422 C30.2443,26.7282 31.9643,25.0082 34.0783,25.0082 L38.3603,25.0082 C40.4743,25.0082 42.1943,26.7282 42.1943,28.8422 L42.1943,35.9422 L64.4363,35.9422 C66.4043,35.9422 68.0903,37.4342 68.3853,39.3702 C68.5313,40.2822 68.2363,41.1942 67.6483,41.8982 C67.0603,42.6022 66.1803,43.0422 65.2023,43.0422 L42.1943,43.0422 L42.1943,49.6982 C42.1943,58.0422 35.3223,64.9142 26.9783,64.9142 L39.1423,64.9142 Z" id="Shape" fill="#FFFFFF" fill-rule="nonzero"></path>
        </g>
    </g>
</svg>