<?xml version="1.0" encoding="UTF-8"?>
<svg width="1024px" height="1024px" viewBox="0 0 1024 1024" version="1.1" xmlns="http://www.w3.org/2000/svg" xmlns:xlink="http://www.w3.org/1999/xlink">
    <title>Trust Wallet</title>
    <g id="Page-1" stroke="none" stroke-width="1" fill="none" fill-rule="evenodd">
        <g id="trust-wallet">
            <rect id="Rectangle" fill="#3375BB" x="0" y="0" width="1024" height="1024" rx="512"></rect>
            <path d="M512,192 C383.2,192 278.4,249.6 278.4,326.4 C278.4,345.6 278.4,384 278.4,403.2 C278.4,441.6 259.2,480 220.8,499.2 C201.6,508.8 192,518.4 192,537.6 C192,556.8 201.6,576 220.8,585.6 C259.2,604.8 278.4,643.2 278.4,681.6 C278.4,700.8 278.4,739.2 278.4,758.4 C278.4,835.2 383.2,892.8 512,892.8 C640.8,892.8 745.6,835.2 745.6,758.4 C745.6,739.2 745.6,700.8 745.6,681.6 C745.6,643.2 764.8,604.8 803.2,585.6 C822.4,576 832,556.8 832,537.6 C832,518.4 822.4,499.2 803.2,489.6 C764.8,470.4 745.6,432 745.6,393.6 C745.6,374.4 745.6,336 745.6,316.8 C745.6,249.6 640.8,192 512,192 Z M512,262.4 C602.4,262.4 675.2,297.6 675.2,336 C675.2,355.2 675.2,393.6 675.2,412.8 C675.2,470.4 694.4,528 742.4,566.4 C742.4,566.4 742.4,566.4 742.4,566.4 C694.4,604.8 675.2,662.4 675.2,720 C675.2,739.2 675.2,777.6 675.2,796.8 C675.2,835.2 602.4,870.4 512,870.4 C421.6,870.4 348.8,835.2 348.8,796.8 C348.8,777.6 348.8,739.2 348.8,720 C348.8,662.4 329.6,604.8 281.6,566.4 C281.6,566.4 281.6,566.4 281.6,566.4 C329.6,528 348.8,470.4 348.8,412.8 C348.8,393.6 348.8,355.2 348.8,336 C348.8,297.6 421.6,262.4 512,262.4 Z" id="Shape" fill="#FFFFFF" fill-rule="nonzero"></path>
            <path d="M512,441.6 C483.2,441.6 464,460.8 464,489.6 L464,585.6 C464,614.4 483.2,633.6 512,633.6 C540.8,633.6 560,614.4 560,585.6 L560,489.6 C560,460.8 540.8,441.6 512,441.6 Z" id="Path" fill="#FFFFFF"></path>
        </g>
    </g>
</svg>