<?xml version="1.0" encoding="UTF-8"?>
<svg width="200" height="200" viewBox="0 0 200 200" version="1.1" xmlns="http://www.w3.org/2000/svg">
  <title>QR Code Placeholder</title>
  <rect width="200" height="200" fill="#f5f5f5" />
  
  <!-- QR Code Frame -->
  <rect x="20" y="20" width="160" height="160" fill="#ffffff" stroke="#000000" stroke-width="2" />
  
  <!-- QR Code Position Markers (Top Left) -->
  <rect x="40" y="40" width="30" height="30" fill="#000000" />
  <rect x="45" y="45" width="20" height="20" fill="#ffffff" />
  <rect x="50" y="50" width="10" height="10" fill="#000000" />
  
  <!-- QR Code Position Markers (Top Right) -->
  <rect x="130" y="40" width="30" height="30" fill="#000000" />
  <rect x="135" y="45" width="20" height="20" fill="#ffffff" />
  <rect x="140" y="50" width="10" height="10" fill="#000000" />
  
  <!-- QR Code Position Markers (Bottom Left) -->
  <rect x="40" y="130" width="30" height="30" fill="#000000" />
  <rect x="45" y="135" width="20" height="20" fill="#ffffff" />
  <rect x="50" y="140" width="10" height="10" fill="#000000" />
  
  <!-- QR Code Data Pattern (Simplified) -->
  <g fill="#000000">
    <!-- Row 1 -->
    <rect x="80" y="40" width="5" height="5" />
    <rect x="90" y="40" width="5" height="5" />
    <rect x="100" y="40" width="5" height="5" />
    <rect x="110" y="40" width="5" height="5" />
    
    <!-- Row 2 -->
    <rect x="85" y="50" width="5" height="5" />
    <rect x="95" y="50" width="5" height="5" />
    <rect x="105" y="50" width="5" height="5" />
    <rect x="115" y="50" width="5" height="5" />
    
    <!-- Middle Section -->
    <rect x="80" y="80" width="40" height="5" />
    <rect x="80" y="90" width="5" height="20" />
    <rect x="115" y="90" width="5" height="20" />
    <rect x="80" y="115" width="40" height="5" />
    
    <!-- Random Data Points -->
    <rect x="90" y="70" width="5" height="5" />
    <rect x="100" y="65" width="5" height="5" />
    <rect x="110" y="75" width="5" height="5" />
    <rect x="95" y="95" width="5" height="5" />
    <rect x="105" y="105" width="5" height="5" />
    <rect x="90" y="125" width="5" height="5" />
    <rect x="100" y="130" width="5" height="5" />
    <rect x="110" y="120" width="5" height="5" />
    
    <!-- Bottom Row -->
    <rect x="80" y="140" width="5" height="5" />
    <rect x="90" y="140" width="5" height="5" />
    <rect x="100" y="140" width="5" height="5" />
    <rect x="110" y="140" width="5" height="5" />
  </g>
  
  <!-- Phoenix Protocol Logo in Center -->
  <circle cx="100" cy="100" r="15" fill="#FF6B00" opacity="0.7" />
  <path d="M100,90 C95,90 93,93 93,100 C93,107 95,110 100,110 C105,110 107,107 107,100 C107,93 105,90 100,90 Z" fill="#FFFFFF" />
  <circle cx="100" cy="100" r="5" fill="#FF6B00" />
</svg>